<svg xmlns:xlink="http://www.w3.org/1999/xlink" xmlns="http://www.w3.org/2000/svg" id="exportSvg" width="600" height="440"><defs/><g><g id="header-svg"><text transform="translate(0, -1.1111111640930176)" fill="rgb(51,51,51)" style="font-family: BentonSans; font-weight: 700; font-size: 19px;"><tspan x="0" dy="19">Minnesota's roads are significantly clearer</tspan></text><g id="text-svg"><text transform="translate(0, 31.111112594604492)" fill="rgb(51,51,51)" style="font-family: BentonSans; font-weight: 400; font-size: 15px;"><tspan x="0" dy="15">Daily percent changes in traffic on roadways across the state drastically declined as </tspan></text><text transform="translate(0, 51.111114501953125)" fill="rgb(51,51,51)" style="font-family: BentonSans; font-weight: 400; font-size: 15px;"><tspan x="0" dy="15">responses to the coronavirus pandemic intensified.</tspan></text><text transform="translate(4, 94.4513931274414)" fill="rgb(51,51,51)" style="font-family: BentonSans; font-weight: 400; font-size: 12px;"><tspan x="0" dy="12">Weekends</tspan></text></g></g><g id="chart-svg"><g id="group-svg"><g id="x-svg ticks-svg"><g id="tick-svg"><text transform="translate(42.138980865478516, 386.33160400390625)" fill="rgb(133, 133, 133)" style="font-family: BentonSans; font-weight: 400; font-size: 12px;"><tspan x="2.468747138977051" dy="12">Mar</tspan></text></g><g id="tick-svg"><text transform="translate(100.15814208984375, 386.33160400390625)" fill="rgb(133, 133, 133)" style="font-family: BentonSans; font-weight: 400; font-size: 12px;"><tspan x="3.140626907348633" dy="12">08</tspan></text></g><g id="tick-svg"><text transform="translate(155.99249267578125, 386.33160400390625)" fill="rgb(133, 133, 133)" style="font-family: BentonSans; font-weight: 400; font-size: 12px;"><tspan x="1.6562519073486328" dy="12">15</tspan></text></g><g id="tick-svg"><text transform="translate(209.7147979736328, 386.33160400390625)" fill="rgb(133, 133, 133)" style="font-family: BentonSans; font-weight: 400; font-size: 12px;"><tspan x="2.609375476837158" dy="12">22</tspan></text></g><g id="tick-svg"><text transform="translate(264.2339782714844, 386.33160400390625)" fill="rgb(133, 133, 133)" style="font-family: BentonSans; font-weight: 400; font-size: 12px;"><tspan x="2.765625476837158" dy="12">29</tspan></text></g><g id="tick-svg"><text transform="translate(316.09686279296875, 386.33160400390625)" fill="rgb(133, 133, 133)" style="font-family: BentonSans; font-weight: 400; font-size: 12px;"><tspan x="2.2265634536743164" dy="12">Apr</tspan></text></g><g id="tick-svg"><text transform="translate(374.67852783203125, 386.33160400390625)" fill="rgb(133, 133, 133)" style="font-family: BentonSans; font-weight: 400; font-size: 12px;"><tspan x="1.6718754768371582" dy="12">12</tspan></text></g><g id="tick-svg"><text transform="translate(429.19769287109375, 386.33160400390625)" fill="rgb(133, 133, 133)" style="font-family: BentonSans; font-weight: 400; font-size: 12px;"><tspan x="1.8281254768371582" dy="12">19</tspan></text></g><g id="tick-svg"><text transform="translate(482.9512634277344, 386.33160400390625)" fill="rgb(133, 133, 133)" style="font-family: BentonSans; font-weight: 400; font-size: 12px;"><tspan x="2.7499938011169434" dy="12">26</tspan></text></g><g id="tick-svg"><text transform="translate(533.157958984375, 386.33160400390625)" fill="rgb(133, 133, 133)" style="font-family: BentonSans; font-weight: 400; font-size: 12px;"><tspan x="2.2187509536743164" dy="12">May</tspan></text></g></g><g id="x-svg axis-svg"><line x1="0" x2="511" y1="0" y2="0" transform="translate(0, 122.22222900390625) translate(45,34) translate(0,37.5)" style="stroke: rgb(51, 51, 51); stroke-width: 1;"/></g><g id="free-range-svg"><rect width="14.3198" height="225" transform="translate(98.55896759033203, 156.22222900390625)" fill="rgb(87,87,87)" style="opacity: 0.05; fill: rgb(87, 87, 87);"/><rect width="14.6452" height="225" transform="translate(152.90892028808594, 156.22222900390625)" fill="rgb(87,87,87)" style="opacity: 0.05; fill: rgb(87, 87, 87);"/><rect width="14.6452" height="225" transform="translate(207.58433532714844, 156.22222900390625)" fill="rgb(87,87,87)" style="opacity: 0.05; fill: rgb(87, 87, 87);"/><rect width="14.6452" height="225" transform="translate(262.259765625, 156.22222900390625)" fill="rgb(87,87,87)" style="opacity: 0.05; fill: rgb(87, 87, 87);"/><rect width="14.6452" height="225" transform="translate(316.9352111816406, 156.22222900390625)" fill="rgb(87,87,87)" style="opacity: 0.05; fill: rgb(87, 87, 87);"/><rect width="14.6452" height="225" transform="translate(371.610595703125, 156.22222900390625)" fill="rgb(87,87,87)" style="opacity: 0.05; fill: rgb(87, 87, 87);"/><rect width="15.6215" height="225" transform="translate(426.28607177734375, 156.22222900390625)" fill="rgb(51,51,51)" style="opacity: 0.05; fill: rgb(51, 51, 51);"/><rect width="15.6215" height="225" transform="translate(480.96142578125, 156.22222900390625)" fill="rgb(51,51,51)" style="opacity: 0.05; fill: rgb(51, 51, 51);"/><rect width="15.6215" height="225" transform="translate(535.6369018554688, 156.22222900390625)" fill="rgb(51,51,51)" style="opacity: 0.05; fill: rgb(51, 51, 51);"/></g><g id="y-grid-svg"><g id="tick-svg tick-major-svg"><line x1="0" x2="511" y1="0" y2="0" transform="translate(0, 122.22222900390625) translate(45,34) translate(0,225)" style="stroke: rgb(238, 238, 238); stroke-width: 1;"/><text transform="translate(-2.3906211853027344, 374.09722900390625)" fill="rgb(133, 133, 133)" style="font-family: BentonSans; font-weight: 400; font-size: 12px;"><tspan x="8.640628814697266" dy="12">−100%</tspan></text></g><g id="tick-svg tick-major-svg"><line x1="0" x2="511" y1="0" y2="0" transform="translate(0, 122.22222900390625) translate(45,34) translate(0,187.5)" style="stroke: rgb(238, 238, 238); stroke-width: 1;"/><text transform="translate(3.1250038146972656, 336.59722900390625)" fill="rgb(133, 133, 133)" style="font-family: BentonSans; font-weight: 400; font-size: 12px;"><tspan x="9.109375" dy="12">−80%</tspan></text></g><g id="tick-svg tick-major-svg"><line x1="0" x2="511" y1="0" y2="0" transform="translate(0, 122.22222900390625) translate(45,34) translate(0,150)" style="stroke: rgb(238, 238, 238); stroke-width: 1;"/><text transform="translate(3.0468788146972656, 299.09722900390625)" fill="rgb(133, 133, 133)" style="font-family: BentonSans; font-weight: 400; font-size: 12px;"><tspan x="9.1875" dy="12">−60%</tspan></text></g><g id="tick-svg tick-major-svg"><line x1="0" x2="511" y1="0" y2="0" transform="translate(0, 122.22222900390625) translate(45,34) translate(0,112.5)" style="stroke: rgb(238, 238, 238); stroke-width: 1;"/><text transform="translate(3.0468788146972656, 261.59722900390625)" fill="rgb(133, 133, 133)" style="font-family: BentonSans; font-weight: 400; font-size: 12px;"><tspan x="9.1875" dy="12">−40%</tspan></text></g><g id="tick-svg tick-major-svg"><line x1="0" x2="511" y1="0" y2="0" transform="translate(0, 122.22222900390625) translate(45,34) translate(0,75)" style="stroke: rgb(238, 238, 238); stroke-width: 1;"/><text transform="translate(3.5000038146972656, 224.09722900390625)" fill="rgb(133, 133, 133)" style="font-family: BentonSans; font-weight: 400; font-size: 12px;"><tspan x="8.734375" dy="12">−20%</tspan></text></g><g id="tick-svg tick-major-svg"><text transform="translate(10.484378814697266, 186.59722900390625)" fill="rgb(133, 133, 133)" style="font-family: BentonSans; font-weight: 400; font-size: 12px;"><tspan x="7.75" dy="12">+0%</tspan></text></g><g id="tick-svg tick-major-svg"><line x1="0" x2="511" y1="0" y2="0" transform="translate(0, 122.22222900390625) translate(45,34) translate(0,0)" style="stroke: rgb(238, 238, 238); stroke-width: 1;"/><text transform="translate(3.5000038146972656, 149.09722900390625)" fill="rgb(133, 133, 133)" style="font-family: BentonSans; font-weight: 400; font-size: 12px;"><tspan x="8.734375" dy="12">+20%</tspan></text></g></g><g id="lines-svg"><path d="M56.48799452681841,29.25L64.2987682511703,29.25L71.78409307034087,30.1875L79.59486679469279,30.1875L87.4056405190447,30.5625L95.21641424339658,29.62499999999997L103.02718796774849,30.9375L110.8379616921004,34.87499999999997L118.6487354164523,39.1875L126.45950914080419,41.25L134.2702828651561,44.625L142.081056589508,50.0625L149.8918303138599,58.3125L157.7026040382118,65.8125L165.5133777625637,73.3125L173.3241514869156,82.3125L181.1349252112675,87L188.94569893561942,91.5L196.7564726599713,94.6875L204.5672463843232,94.125L212.37802010867512,94.5L220.18879383302703,100.3125L227.9995675573789,104.625L235.8103412817308,106.875L243.6211150060827,108.56250000000001L251.43188873043462,110.25L259.2426624547865,113.24999999999999L267.05343617913843,118.875L274.8642099034903,116.99999999999999L282.6749836278422,116.0625L290.4857573521941,117.375L298.29653107654605,118.3125L306.10730480089796,117.5625L313.9180785252499,116.0625L321.7288522496017,112.5L329.5396259739536,110.4375L337.3503996983055,115.3125L345.16117342265744,115.5L352.97194714700936,115.5L360.7827208713612,114.75L368.59349459571314,113.4375L376.40426832006506,111.5625L384.215042044417,109.68750000000001L392.0258157687689,101.8125L399.83658949312075,99.5625L407.6473632174726,97.5L415.45813694182453,94.875L423.26891066617645,92.62500000000003L431.07968439052837,90.5625L438.8904581148803,88.5L446.70123183923215,85.5L454.51200556358407,82.6875L462.322779287936,82.125L470.13355301228785,81.375L477.94432673663977,78.375L485.7551004609916,80.0625L493.56587418534355,80.8125L501.37664790969546,81.375" stroke="rgb(136,136,136)" id="moving_average" transform="translate(0, 122.22222900390625) translate(45,34)" style="stroke-width: 2; stroke-dasharray: 0.5, 4; stroke-linejoin: round; stroke-linecap: round; fill: none; mix-blend-mode: normal;"/><path d="M9.623352180707002,17.0625L17.434125905058902,31.875L25.244899629410803,36.1875L33.05567335376271,34.125L40.866447078114604,36.9375L48.677220802466515,30.5625L56.48799452681841,17.8125L64.2987682511703,16.6875L71.78409307034087,38.8125L79.59486679469279,36.1875L87.4056405190447,36.37500000000003L95.21641424339658,30.375L103.02718796774849,39.9375L110.8379616921004,45.9375L118.6487354164523,47.25000000000003L126.45950914080419,53.0625L134.2702828651561,58.875L142.081056589508,75L149.8918303138599,88.3125L157.7026040382118,92.06249999999997L165.5133777625637,98.62499999999999L173.3241514869156,109.68750000000001L181.1349252112675,85.87499999999997L188.94569893561942,91.12499999999997L196.7564726599713,97.125L204.5672463843232,84.75L212.37802010867512,93.9375L220.18879383302703,140.25L227.9995675573789,138.75L235.8103412817308,101.625L243.6211150060827,103.31249999999999L251.43188873043462,108.56250000000001L259.2426624547865,105.9375L267.05343617913843,134.25L274.8642099034903,127.125L282.6749836278422,131.25L290.4857573521941,111.375L298.29653107654605,109.87500000000001L306.10730480089796,103.6875L313.9180785252499,95.4375L321.7288522496017,109.125L329.5396259739536,111.75000000000001L337.3503996983055,165.375L345.16117342265744,113.24999999999999L352.97194714700936,109.68750000000001L360.7827208713612,98.4375L368.59349459571314,86.625L376.40426832006506,96.375L384.215042044417,98.62499999999999L392.0258157687689,109.87500000000001L399.83658949312075,97.5L407.6473632174726,95.25L415.45813694182453,79.31249999999997L423.26891066617645,70.875L431.07968439052837,82.125L438.8904581148803,84.18750000000003L446.70123183923215,89.43750000000003L454.51200556358407,77.4375L462.322779287936,91.68750000000003L470.13355301228785,73.875L477.94432673663977,49.6875L485.7551004609916,94.3125L493.56587418534355,89.8125L501.37664790969546,92.8125" stroke="rgb(31,119,180)" id="mn_volume" transform="translate(0, 122.22222900390625) translate(45,34)" style="stroke-width: 2; stroke-linejoin: round; stroke-linecap: round; fill: none; mix-blend-mode: normal;"/></g><g id="line-symbols-svg"><path d="M -1,0 a 1,1 0 1,0 2,0 a 1,1 0 1,0 -2,0 Z" stroke="null" id="moving_average" transform="translate(0, 122.22222900390625) translate(45,34) translate(501.37664790969546,81.375) scale(3.5)" style="fill: rgb(136, 136, 136); mix-blend-mode: normal;"/><path d="M -1,0 a 1,1 0 1,0 2,0 a 1,1 0 1,0 -2,0 Z" stroke="null" id="mn_volume" transform="translate(0, 122.22222900390625) translate(45,34) translate(501.37664790969546,92.8125) scale(3.5)" style="fill: rgb(31, 119, 180); mix-blend-mode: normal;"/></g><g id="free-texts-svg"><g id="bg-svg"><rect width="90.1719" height="38.85937309265137" transform="translate(168.30079650878906, 267.38787841796875)" fill="rgb(255,255,255)" style="fill: rgb(255, 255, 255);"/><rect width="90.5781" height="38.85937309265137" transform="translate(288.9615478515625, 311.2472229003906)" fill="rgb(255,255,255)" style="fill: rgb(255, 255, 255);"/></g><text transform="translate(170.30075073242188, 271.26287841796875)" fill="rgb(106, 106, 106)" style="font-family: BentonSans; font-weight: 400; font-size: 12px;"><tspan x="22.703125" dy="12">Stay at Home</tspan><tspan x="19.53125" dy="14.399999999999999">order starts →</tspan></text><text transform="translate(290.96148681640625, 315.1222229003906)" fill="rgb(106, 106, 106)" style="font-family: BentonSans; font-weight: 400; font-size: 12px;"><tspan x="39.828125" dy="12">Snowy →</tspan><tspan x="19.046875" dy="14.399999999999999">Easter Sunday</tspan></text></g></g><g id="d3l-key-svg legend-key-svg" clip-path="url(#rect-mask-d3l-key-legend-key-0)"><clipPath id="rect-mask-d3l-key-legend-key-0"><rect x="0" y="121.77083587646484" width="15.989583969116211" height="20"/></clipPath><path d="M1,10 L15,10" stroke="rgb(31,119,180)" id="mn_volume" transform="translate(0, 121.77083587646484)" style="stroke-width: 2; stroke-linejoin: round; stroke-linecap: round; fill: none; mix-blend-mode: normal;"/></g><text transform="translate(19.98263931274414, 125.0868148803711)" fill="rgb(51,51,51)" id="mn_volume" style="font-family: BentonSans; font-weight: 400; font-size: 12px;"><tspan x="0" dy="12">Traffic volume change from 2019</tspan></text><g id="d3l-key-svg legend-key-svg" clip-path="url(#rect-mask-d3l-key-legend-key-1)"><clipPath id="rect-mask-d3l-key-legend-key-1"><rect x="208.33334350585938" y="121.77083587646484" width="15.989583969116211" height="20"/></clipPath><path d="M1,10 L15,10" stroke="rgb(136,136,136)" id="moving_average" transform="translate(208.33334350585938, 121.77083587646484)" style="stroke-width: 2; stroke-dasharray: 0.5, 4; stroke-linejoin: round; stroke-linecap: round; fill: none; mix-blend-mode: normal;"/></g><text transform="translate(228.31597900390625, 125.0868148803711)" fill="rgb(51,51,51)" id="moving_average" style="font-family: BentonSans; font-weight: 400; font-size: 12px;"><tspan x="0" dy="12">Moving 7-day average</tspan></text><text transform="translate(555.9896240234375, 221.07640075683594)" fill="rgb(51,51,51)" id="moving_average" style="font-family: BentonSans; font-weight: 400; font-size: 12px;"><tspan x="0" dy="12">−23%</tspan></text><text transform="translate(555.9896240234375, 255.52084350585938)" fill="rgb(51,51,51)" id="mn_volume" style="font-family: BentonSans; font-weight: 400; font-size: 12px;"><tspan x="0" dy="12">−29%</tspan></text></g><g id="above-footer-svg"/><g id="footer-svg"><g id="footer-inner-svg"><g id="footer-main-svg"><g id="text-svg"><text transform="translate(0, 422.5520935058594)" fill="rgb(136,136,136)" style="font-family: BentonSans; font-weight: 400; font-size: 11px;"><tspan x="0" dy="11">Chart:</tspan></text><text transform="translate(34.114585876464844, 422.5520935058594)" fill="rgb(136,136,136)" style="font-family: BentonSans; font-weight: 400; font-size: 11px;"><tspan x="0" dy="11">Jeff Hargarten, Star Tribune</tspan></text></g><text transform="translate(181.71876525878906, 422.5520935058594)" fill="rgb(136,136,136)" style="font-family: BentonSans; font-weight: 400; font-size: 11px;"><tspan x="0" dy="11">•</tspan></text><g id="text-svg"><text transform="translate(189.40972900390625, 422.5520935058594)" fill="rgb(136,136,136)" style="font-family: BentonSans; font-weight: 400; font-size: 11px;"><tspan x="0" dy="11">Source:</tspan></text><text transform="translate(230.95486450195312, 422.5520935058594)" fill="rgb(136,136,136)" style="font-family: BentonSans; font-weight: 400; font-size: 11px;"><tspan x="0" dy="11">Minnesota Department of Transportation</tspan></text></g></g></g></g><g id="below-footer-svg"/><g id="afterBody-svg"/></g></svg>